<svg xmlns="http://www.w3.org/2000/svg" viewBox="0 0 200 200">
<ellipse cx="100" cy="171" rx="50" ry="11" fill="#7DB46C"/>
<ellipse cx="100" cy="168" rx="48" ry="10" fill="#A6D98C"/>
<path d="M95 169 C96 150 97 140 98 130 L102 130 C103 142 104 154 105 169 Z" fill="#8B6239"/>
<g transform="rotate(22 118 70)">
<rect x="114" y="48" width="8" height="44" rx="4" fill="#FF8FA3"/>
<rect x="114" y="48" width="8" height="10" rx="4" fill="#E97690"/>
</g>
<ellipse cx="100" cy="101" rx="34" ry="30" fill="#C8893E"/>
<ellipse cx="100" cy="97" rx="33" ry="29" fill="#DDA15E"/>
<path d="M67 97 a33 29 0 0 1 66 0 Z" fill="#F6E7CD"/>
<circle cx="78" cy="100" r="6" fill="#F6E7CD"/>
<circle cx="93" cy="104" r="6.5" fill="#F6E7CD"/>
<circle cx="108" cy="102" r="5.5" fill="#F6E7CD"/>
<circle cx="121" cy="98" r="5" fill="#F6E7CD"/>
<circle cx="84" cy="118" r="3.5" fill="#4A2E1F"/>
<circle cx="94" cy="122" r="3.5" fill="#4A2E1F"/>
<circle cx="106" cy="121" r="3.5" fill="#4A2E1F"/>
<circle cx="116" cy="116" r="3.5" fill="#4A2E1F"/>
<circle cx="100" cy="114" r="3.5" fill="#4A2E1F"/>
<circle cx="83" cy="117" r="1" fill="#FFFFFF" opacity="0.5"/>
<circle cx="93" cy="121" r="1" fill="#FFFFFF" opacity="0.5"/>
<circle cx="105" cy="120" r="1" fill="#FFFFFF" opacity="0.5"/>
<circle cx="86" cy="64" r="5" fill="#E84A5F"/>
<path d="M86 59 Q88 52 93 50" stroke="#5C8A3C" stroke-width="2" fill="none" stroke-linecap="round"/>
<ellipse cx="82" cy="82" rx="8" ry="4.5" fill="#FFF7E6" opacity="0.85" transform="rotate(-18 82 82)"/>
<path d="M52 92 l2 4.5 4.5 2 -4.5 2 -2 4.5 -2 -4.5 -4.5 -2 4.5 -2 Z" fill="#FFE9A8"/>
<circle cx="130" cy="166" r="3" fill="#4A2E1F"/>
</svg>
