<svg xmlns="http://www.w3.org/2000/svg" viewBox="0 0 200 200">
<ellipse cx="100" cy="174" rx="58" ry="12" fill="#79B364"/>
<ellipse cx="100" cy="171" rx="54" ry="10" fill="#94CE7A"/>
<path d="M100 170 C100 161 99 155 100 148" stroke="#7C4E2C" stroke-width="4" fill="none" stroke-linecap="round"/>
<path d="M100 152 C91 150 84 143 82 133 C93 134 99 142 100 152 Z" fill="#5B9E3E"/>
<path d="M100 152 C109 150 116 143 118 133 C107 134 101 142 100 152 Z" fill="#3E7A2E"/>
<path d="M100 148 C96 142 96 136 100 130 C104 136 104 142 100 148 Z" fill="#86C45D"/>
<path d="M86 137 q3 -3 7 -3 M107 140 q4 -2 7 -2" stroke="#CDEBAB" stroke-width="1.2" fill="none" stroke-linecap="round"/>
<ellipse cx="86" cy="170" rx="4" ry="2.4" fill="#9A9A8E"/>
<path d="M116 170 q1 -6 3 -8 q1 5 0 8 Z" fill="#5FA34A"/>
</svg>
