<svg xmlns="http://www.w3.org/2000/svg" viewBox="0 0 200 200">
<defs>
<linearGradient id="c3t" x1="0" y1="0" x2="1" y2="0"><stop offset="0%" stop-color="#8A5A35"/><stop offset="45%" stop-color="#A8714A"/><stop offset="100%" stop-color="#6E4527"/></linearGradient>
<radialGradient id="c3g"><stop offset="0%" stop-color="#86C45D"/><stop offset="100%" stop-color="#5B9E3E"/></radialGradient>
</defs>
<ellipse cx="100" cy="174" rx="58" ry="12" fill="#79B364"/>
<ellipse cx="100" cy="171" rx="54" ry="10" fill="#94CE7A"/>
<path d="M82 170 C78 166 76 161 80 157 L90 163 C86 165 83 168 82 170 Z" fill="#7C4E2C"/>
<path d="M118 170 C122 166 124 161 120 157 L110 163 C114 165 117 168 118 170 Z" fill="#6E4527"/>
<path d="M88 170 C89 146 86 128 92 112 L110 112 C116 130 112 148 113 170 Z" fill="url(#c3t)"/>
<path d="M94 164 C93 148 94 132 97 118" stroke="#5E3A1F" stroke-width="1.8" fill="none" opacity="0.55"/>
<path d="M104 165 C105 150 104 136 103 120" stroke="#5E3A1F" stroke-width="1.4" fill="none" opacity="0.45"/>
<ellipse cx="98" cy="142" rx="4.5" ry="7" fill="#4A2D16"/>
<ellipse cx="98" cy="140.5" rx="3.4" ry="5.4" fill="#2E1B0C"/>
<path d="M93 116 C82 110 72 108 62 110" stroke="#7C4E2C" stroke-width="6" fill="none" stroke-linecap="round"/>
<path d="M107 116 C118 110 128 108 138 110" stroke="#6E4527" stroke-width="6" fill="none" stroke-linecap="round"/>
<circle cx="66" cy="98" r="15" fill="#3E7A2E"/>
<circle cx="134" cy="98" r="15" fill="#3E7A2E"/>
<circle cx="100" cy="76" r="26" fill="#3E7A2E"/>
<circle cx="82" cy="88" r="17" fill="#3E7A2E"/>
<circle cx="118" cy="88" r="17" fill="#3E7A2E"/>
<circle cx="68" cy="95" r="11" fill="url(#c3g)"/>
<circle cx="132" cy="95" r="11" fill="url(#c3g)"/>
<circle cx="84" cy="84" r="13" fill="url(#c3g)"/>
<circle cx="116" cy="84" r="13" fill="url(#c3g)"/>
<circle cx="100" cy="72" r="22" fill="url(#c3g)"/>
<circle cx="92" cy="62" r="10" fill="#A2D87E"/>
<circle cx="122" cy="78" r="5" fill="#A2D87E" opacity="0.85"/>
<path d="M89 63 q4 -3 8 -3" stroke="#CDEBAB" stroke-width="1.3" fill="none" stroke-linecap="round"/>
<path d="M74 94 C74 106 72 116 74 124" stroke="#4E8C3A" stroke-width="1.8" fill="none"/>
<circle cx="73" cy="108" r="2.2" fill="#66B04B"/><circle cx="74" cy="120" r="2" fill="#66B04B"/>
<ellipse cx="78" cy="170" rx="5" ry="3" fill="#9A9A8E"/>
<ellipse cx="76.5" cy="168.8" rx="3.4" ry="1.9" fill="#B8B8AC"/>
<path d="M124 170 q1 -7 4 -9 q1 6 -1 9 Z" fill="#5FA34A"/>
</svg>
