<svg xmlns="http://www.w3.org/2000/svg" viewBox="0 0 200 200">
<defs>
<radialGradient id="d3g"><stop offset="0%" stop-color="#FFC85C" stop-opacity="0.55"/><stop offset="100%" stop-color="#FFC85C" stop-opacity="0"/></radialGradient>
<radialGradient id="d3f" cx="50%" cy="35%"><stop offset="0%" stop-color="#FFE9A8"/><stop offset="55%" stop-color="#FFB347"/><stop offset="100%" stop-color="#E8821E"/></radialGradient>
<radialGradient id="d3l" cx="45%" cy="35%"><stop offset="0%" stop-color="#2E6E63"/><stop offset="100%" stop-color="#1C4A42"/></radialGradient>
</defs>
<ellipse cx="100" cy="174" rx="54" ry="11" fill="#5E8C56"/>
<ellipse cx="100" cy="171" rx="50" ry="9" fill="#739F66"/>
<path d="M96 170 C96 148 95 128 98 112 L104 112 C106 132 105 152 105 170 Z" fill="#4A3328"/>
<path d="M99 162 C99 146 98 130 100 116" stroke="#6B4A38" stroke-width="1.3" fill="none" opacity="0.8"/>
<path d="M98 124 C88 118 80 116 72 118" stroke="#4A3328" stroke-width="4" fill="none" stroke-linecap="round"/>
<circle cx="72" cy="106" r="15" fill="#163B35"/>
<circle cx="128" cy="104" r="15" fill="#163B35"/>
<circle cx="100" cy="82" r="24" fill="#163B35"/>
<circle cx="84" cy="92" r="16" fill="#163B35"/>
<circle cx="116" cy="92" r="16" fill="#163B35"/>
<circle cx="74" cy="103" r="11" fill="url(#d3l)"/>
<circle cx="126" cy="101" r="11" fill="url(#d3l)"/>
<circle cx="86" cy="88" r="12" fill="url(#d3l)"/>
<circle cx="114" cy="88" r="12" fill="url(#d3l)"/>
<circle cx="100" cy="78" r="20" fill="url(#d3l)"/>
<circle cx="93" cy="70" r="8" fill="#3E8276"/>
<circle cx="120" cy="84" r="5" fill="#3E8276" opacity="0.9"/>
<g>
<path d="M76 116 L76 124" stroke="#3A2A20" stroke-width="1.4"/>
<circle cx="76" cy="132" r="12" fill="url(#d3g)"/>
<ellipse cx="76" cy="131" rx="6" ry="7.5" fill="url(#d3f)"/>
<path d="M72 125 C72 134 72 134 76 137 M80 125 C80 134 80 134 76 137" stroke="#C96A14" stroke-width="0.8" fill="none" opacity="0.7"/>
<rect x="74" y="121.5" width="4" height="2.6" rx="1" fill="#7A4A1E"/>
</g>
<g>
<path d="M124 112 L124 120" stroke="#3A2A20" stroke-width="1.4"/>
<circle cx="124" cy="129" r="13" fill="url(#d3g)"/>
<ellipse cx="124" cy="128" rx="6.5" ry="8" fill="url(#d3f)"/>
<path d="M120 122 C120 131 120 131 124 134 M128 122 C128 131 128 131 124 134" stroke="#C96A14" stroke-width="0.8" fill="none" opacity="0.7"/>
<rect x="122" y="118.5" width="4" height="2.6" rx="1" fill="#7A4A1E"/>
</g>
<circle cx="56" cy="138" r="4" fill="url(#d3g)"/><circle cx="56" cy="138" r="1.2" fill="#FFE9A8"/>
<circle cx="148" cy="146" r="4" fill="url(#d3g)"/><circle cx="148" cy="146" r="1.1" fill="#FFE9A8"/>
<circle cx="152" cy="92" r="3.5" fill="url(#d3g)"/><circle cx="152" cy="92" r="1" fill="#FFE9A8"/>
<path d="M84 162 q1 -5 3 -7 q1 4 0 7 Z" fill="#5E8C56"/>
<path d="M118 164 q2 -4 4 -6 q1 4 -1 6 Z" fill="#739F66"/>
</svg>
