<svg xmlns="http://www.w3.org/2000/svg" viewBox="0 0 200 200">
<defs><radialGradient id="dg4"><stop offset="0%" stop-color="#7FF0E2" stop-opacity="0.3"/><stop offset="100%" stop-color="#7FF0E2" stop-opacity="0"/></radialGradient></defs>
<ellipse cx="100" cy="171" rx="50" ry="11" fill="#7DB46C"/>
<ellipse cx="100" cy="168" rx="48" ry="10" fill="#A6D98C"/>
<ellipse cx="100" cy="98" rx="62" ry="56" fill="url(#dg4)"/>
<path d="M96 169 C68 154 132 144 102 128 C82 117 120 110 100 96" stroke="#8D6E63" stroke-width="9" fill="none" stroke-linecap="round"/>
<circle cx="72" cy="92" r="16" fill="#1F9E92"/>
<circle cx="128" cy="92" r="16" fill="#1F9E92"/>
<circle cx="100" cy="74" r="22" fill="#1F9E92"/>
<circle cx="100" cy="92" r="16" fill="#1F9E92"/>
<circle cx="100" cy="70" r="20" fill="#2EC4B6"/>
<circle cx="74" cy="89" r="14" fill="#2EC4B6"/>
<circle cx="126" cy="89" r="14" fill="#2EC4B6"/>
<circle cx="100" cy="89" r="14" fill="#2EC4B6"/>
<circle cx="92" cy="63" r="8" fill="#6FE3D6"/>
<circle cx="69" cy="84" r="5" fill="#6FE3D6"/>
<circle cx="122" cy="84" r="5" fill="#6FE3D6"/>
<circle cx="100" cy="128" r="14" fill="url(#dg4)"/>
<circle cx="100" cy="128" r="8.5" fill="#FFD166"/>
<circle cx="97" cy="125" r="2.5" fill="#FFF3C4"/>
<path d="M86 56 C76 52 72 44 75 36" stroke="#FFD166" stroke-width="2.2" fill="none" stroke-linecap="round"/>
<path d="M114 56 C124 52 128 44 125 36" stroke="#FFD166" stroke-width="2.2" fill="none" stroke-linecap="round"/>
<path d="M50 70 l2 4.5 4.5 2 -4.5 2 -2 4.5 -2 -4.5 -4.5 -2 4.5 -2 Z" fill="#FFE9A8"/>
<path d="M148 78 l1.8 4 4 1.8 -4 1.8 -1.8 4 -1.8 -4 -4 -1.8 4 -1.8 Z" fill="#FFE9A8"/>
<path d="M124 38 l1.5 3.5 3.5 1.5 -3.5 1.5 -1.5 3.5 -1.5 -3.5 -3.5 -1.5 3.5 -1.5 Z" fill="#FFE9A8"/>
<circle cx="70" cy="136" r="1.5" fill="#FFD166"/>
<circle cx="134" cy="132" r="1.5" fill="#FFD166"/>
</svg>
