<svg xmlns="http://www.w3.org/2000/svg" viewBox="0 0 280 160">
<defs>
<radialGradient id="duo_sh"><stop offset="0%" stop-color="#000" stop-opacity="0.32"/><stop offset="100%" stop-color="#000" stop-opacity="0"/></radialGradient>
<linearGradient id="duo_lap" x1="0" y1="0" x2="0" y2="1"><stop offset="0%" stop-color="#bde7cf"/><stop offset="100%" stop-color="#7fc6a0"/></linearGradient>
</defs>
<!-- shadow -->
<ellipse cx="140" cy="142" rx="104" ry="14" fill="url(#duo_sh)"/>

<!-- ░ Person A (left) — green hoodie, on laptop ░ -->
<g>
  <!-- crossed legs -->
  <path d="M58 138 C56 124 64 116 78 116 C92 116 100 124 98 138 Z" fill="#3f6f4f"/>
  <path d="M60 134 q18 7 36 0" stroke="#2f5740" stroke-width="2" fill="none" opacity="0.6"/>
  <!-- torso hoodie -->
  <path d="M66 118 C64 100 70 90 78 90 C86 90 92 100 90 118 Z" fill="#56a23c"/>
  <path d="M70 96 C74 92 82 92 86 96 L86 104 C82 101 74 101 70 104 Z" fill="#6fb75a"/>
  <!-- left arm to laptop -->
  <path d="M88 104 C96 106 102 112 102 120" stroke="#56a23c" stroke-width="7" fill="none" stroke-linecap="round"/>
  <!-- head -->
  <circle cx="78" cy="76" r="13" fill="#e8b486"/>
  <path d="M65 74 C64 62 72 56 80 57 C89 58 92 66 90 73 C88 67 84 64 80 64 C73 64 68 68 66 75 Z" fill="#3a2a1e"/>
  <circle cx="75" cy="77" r="1.6" fill="#3a2a1e"/><circle cx="83" cy="77" r="1.6" fill="#3a2a1e"/>
  <path d="M76 82 q3 2.5 6 0" stroke="#b9774f" stroke-width="1.4" fill="none" stroke-linecap="round"/>
  <!-- laptop -->
  <g transform="rotate(-4 104 124)">
    <rect x="92" y="118" width="30" height="20" rx="2.5" fill="#2e3b33"/>
    <rect x="95" y="121" width="24" height="14" rx="1.5" fill="url(#duo_lap)"/>
    <rect x="88" y="136" width="38" height="5" rx="2.5" fill="#42514a"/>
  </g>
</g>

<!-- ░ small shared sprout between them ░ -->
<path d="M140 140 L140 128" stroke="#5b9e3e" stroke-width="2.2" fill="none" stroke-linecap="round"/>
<path d="M140 132 C134 131 131 127 132 122 C138 123 141 127 140 132 Z" fill="#7fc66a"/>
<path d="M140 130 C146 129 149 125 148 120 C142 121 139 125 140 130 Z" fill="#94ce7a"/>

<!-- ░ Person B (right) — amber top, with book ░ -->
<g>
  <!-- crossed legs -->
  <path d="M182 138 C180 124 188 116 202 116 C216 116 224 124 222 138 Z" fill="#7a5230"/>
  <path d="M184 134 q18 7 36 0" stroke="#5f3f24" stroke-width="2" fill="none" opacity="0.6"/>
  <!-- torso -->
  <path d="M190 118 C188 100 194 90 202 90 C210 90 216 100 214 118 Z" fill="#e0a04a"/>
  <path d="M194 96 C198 92 206 92 210 96 L210 104 C206 101 198 101 194 104 Z" fill="#f4c66b"/>
  <!-- arms holding book -->
  <path d="M193 106 C188 110 186 116 188 122" stroke="#e0a04a" stroke-width="7" fill="none" stroke-linecap="round"/>
  <path d="M211 106 C216 110 218 116 216 122" stroke="#e0a04a" stroke-width="7" fill="none" stroke-linecap="round"/>
  <!-- head -->
  <circle cx="202" cy="76" r="13" fill="#d99a6c"/>
  <path d="M189 76 C187 62 196 55 204 56 C213 57 216 66 214 76 C212 70 209 66 204 66 L204 60 C197 61 191 67 190 76 Z" fill="#4a3526"/>
  <circle cx="199" cy="77" r="1.6" fill="#3a2a1e"/><circle cx="207" cy="77" r="1.6" fill="#3a2a1e"/>
  <path d="M200 82 q3 2.5 6 0" stroke="#a86a45" stroke-width="1.4" fill="none" stroke-linecap="round"/>
  <!-- book -->
  <g transform="rotate(3 202 124)">
    <path d="M186 120 L202 117 L202 134 L186 137 Z" fill="#c0623f"/>
    <path d="M218 120 L202 117 L202 134 L218 137 Z" fill="#d6764f"/>
    <path d="M202 117 L202 134" stroke="#8a3f24" stroke-width="1.4"/>
    <path d="M190 124 l9 -1.6 M190 128 l9 -1.6 M205 122 l9 1.6 M205 126 l9 1.6" stroke="#f3d9c4" stroke-width="1" opacity="0.8"/>
  </g>
</g>
</svg>
