<svg xmlns="http://www.w3.org/2000/svg" viewBox="0 0 200 200">
<defs>
<radialGradient id="f3g"><stop offset="0%" stop-color="#FF5E5E" stop-opacity="0.38"/><stop offset="60%" stop-color="#E83A3A" stop-opacity="0.15"/><stop offset="100%" stop-color="#E83A3A" stop-opacity="0"/></radialGradient>
<radialGradient id="f3c"><stop offset="0%" stop-color="#FFF3C4"/><stop offset="60%" stop-color="#FFB347"/><stop offset="100%" stop-color="#F2545B"/></radialGradient>
<linearGradient id="f3p" x1="0" y1="1" x2="0" y2="0"><stop offset="0%" stop-color="#A61B2E"/><stop offset="55%" stop-color="#E8323E"/><stop offset="100%" stop-color="#FF7E6B"/></linearGradient>
<linearGradient id="f3s" x1="0" y1="0" x2="1" y2="0"><stop offset="0%" stop-color="#7A1626"/><stop offset="50%" stop-color="#B3273A"/><stop offset="100%" stop-color="#5E0F1C"/></linearGradient>
</defs>
<ellipse cx="100" cy="172" rx="52" ry="11" fill="#8C6A5E" opacity="0.7"/>
<ellipse cx="100" cy="169" rx="48" ry="9" fill="#A3837A" opacity="0.7"/>
<ellipse cx="100" cy="98" rx="50" ry="48" fill="url(#f3g)"/>
<path d="M101 166 C99 148 98 130 99 110" stroke="url(#f3s)" stroke-width="4.5" fill="none" stroke-linecap="round"/>
<path d="M100 158 C99 146 99 132 99.5 116" stroke="#FF9E8A" stroke-width="1" fill="none" opacity="0.8"/>
<ellipse cx="100" cy="88" rx="10" ry="16" fill="url(#f3c)"/>
<path d="M98 108 C84 102 78 88 82 72 C86 78 90 80 92 76 C94 84 97 90 100 94 C98 99 97 104 98 108 Z" fill="url(#f3p)"/>
<path d="M102 108 C116 102 122 88 118 72 C114 78 110 80 108 76 C106 84 103 90 100 94 C102 99 103 104 102 108 Z" fill="url(#f3p)"/>
<path d="M100 106 C93 96 93 80 100 70 C107 80 107 96 100 106 Z" fill="url(#f3p)"/>
<path d="M100 102 C96 94 96 82 100 76 C104 82 104 94 100 102 Z" fill="#FFB347" opacity="0.85"/>
<path d="M86 96 C78 90 74 80 76 68" stroke="#FFD9C2" stroke-width="1" fill="none" opacity="0.85"/>
<path d="M114 96 C122 90 126 80 124 68" stroke="#FFD9C2" stroke-width="1" fill="none" opacity="0.85"/>
<circle cx="80" cy="108" r="1.6" fill="#FFB347" opacity="0.95"/>
<circle cx="122" cy="100" r="1.4" fill="#FF7E6B" opacity="0.9"/>
<circle cx="94" cy="56" r="1.4" fill="#FFD9C2" opacity="0.9"/>
<circle cx="112" cy="52" r="1.2" fill="#FFB347" opacity="0.85"/>
<path d="M72 80 l1.4 3.2 3.2 1.4 -3.2 1.4 -1.4 3.2 -1.4 -3.2 -3.2 -1.4 3.2 -1.4 Z" fill="#FFE9A8" opacity="0.95"/>
<path d="M128 86 l1.2 2.8 2.8 1.2 -2.8 1.2 -1.2 2.8 -1.2 -2.8 -2.8 -1.2 2.8 -1.2 Z" fill="#FFD9C2" opacity="0.9"/>
</svg>
