<svg xmlns="http://www.w3.org/2000/svg" viewBox="0 0 200 200">
<defs>
<radialGradient id="f2g"><stop offset="0%" stop-color="#FF5E5E" stop-opacity="0.36"/><stop offset="100%" stop-color="#E83A3A" stop-opacity="0"/></radialGradient>
<radialGradient id="f2c"><stop offset="0%" stop-color="#FFF3C4"/><stop offset="60%" stop-color="#FFB347"/><stop offset="100%" stop-color="#F2545B"/></radialGradient>
<linearGradient id="f2p" x1="0" y1="1" x2="0" y2="0"><stop offset="0%" stop-color="#A61B2E"/><stop offset="55%" stop-color="#E8323E"/><stop offset="100%" stop-color="#FF7E6B"/></linearGradient>
<linearGradient id="f2s" x1="0" y1="0" x2="1" y2="0"><stop offset="0%" stop-color="#7A1626"/><stop offset="50%" stop-color="#B3273A"/><stop offset="100%" stop-color="#5E0F1C"/></linearGradient>
</defs>
<ellipse cx="100" cy="172" rx="52" ry="11" fill="#8C6A5E" opacity="0.7"/>
<ellipse cx="100" cy="169" rx="48" ry="9" fill="#A3837A" opacity="0.7"/>
<circle cx="100" cy="116" r="36" fill="url(#f2g)"/>
<path d="M100 166 C99 152 99 138 100 124" stroke="url(#f2s)" stroke-width="4" fill="none" stroke-linecap="round"/>
<!-- nụ lửa khép -->
<ellipse cx="100" cy="106" rx="7" ry="11" fill="url(#f2c)"/>
<path d="M97 124 C88 116 86 104 92 94 C95 100 97 104 100 106 C103 104 105 100 108 94 C114 104 112 116 103 124 C101 126 99 126 97 124 Z" fill="url(#f2p)"/>
<path d="M100 122 C96 114 96 104 100 98 C104 104 104 114 100 122 Z" fill="#FF7E6B" opacity="0.85"/>
<path d="M90 108 C86 102 85 96 87 90" stroke="#FFD9C2" stroke-width="0.9" fill="none" opacity="0.8"/>
<path d="M110 108 C114 102 115 96 113 90" stroke="#FFD9C2" stroke-width="0.9" fill="none" opacity="0.8"/>
<circle cx="84" cy="120" r="1.5" fill="#FFB347" opacity="0.9"/>
<circle cx="118" cy="112" r="1.3" fill="#FF7E6B" opacity="0.85"/>
<circle cx="102" cy="80" r="1.4" fill="#FFD9C2" opacity="0.85"/>
<path d="M122 130 l1.2 2.8 2.8 1.2 -2.8 1.2 -1.2 2.8 -1.2 -2.8 -2.8 -1.2 2.8 -1.2 Z" fill="#FFE9A8" opacity="0.9"/>
</svg>
