<svg xmlns="http://www.w3.org/2000/svg" viewBox="0 0 200 200">
<defs>
<radialGradient id="p2g"><stop offset="0%" stop-color="#FF9EC4" stop-opacity="0.36"/><stop offset="100%" stop-color="#FF7BB0" stop-opacity="0"/></radialGradient>
<linearGradient id="p2l" x1="0" y1="1" x2="0" y2="0"><stop offset="0%" stop-color="#F27BAE" stop-opacity="0.55"/><stop offset="100%" stop-color="#FFD3E5" stop-opacity="0.8"/></linearGradient>
</defs>
<ellipse cx="100" cy="172" rx="54" ry="11" fill="#7A9978" opacity="0.7"/>
<ellipse cx="100" cy="169" rx="50" ry="9" fill="#8FB28A" opacity="0.7"/>
<circle cx="100" cy="124" r="38" fill="url(#p2g)"/>
<path d="M100 164 C99 150 99 136 100 112" stroke="#E06A9C" stroke-width="3.2" fill="none" stroke-linecap="round" opacity="0.9"/>
<path d="M100 164 C99 150 99 136 100 112" stroke="#FFD3E5" stroke-width="1.3" fill="none" stroke-linecap="round"/>
<path d="M99 142 L82 134 L72 139 L82 147 L98 145 Z" fill="url(#p2l)" stroke="#FFD3E5" stroke-width="1.2"/>
<path d="M101 142 L118 132 L129 137 L119 146 L102 145 Z" fill="url(#p2l)" stroke="#FFD3E5" stroke-width="1.2"/>
<!-- nụ hồng nhỏ -->
<g transform="translate(100 104)">
<circle r="14" fill="#FF9EC4" opacity="0.2"/>
<path d="M-9 4 C-12 -4 -8 -12 -1 -13 C-6 -7 -7 -1 -6 5 Z" fill="#FFC2DC" opacity="0.95"/>
<path d="M9 4 C12 -4 8 -12 1 -13 C6 -7 7 -1 6 5 Z" fill="#FFB0D2" opacity="0.95"/>
<path d="M-6 5 C-7 -3 -3 -10 0 -11 C3 -10 7 -3 6 5 C3 8 -3 8 -6 5 Z" fill="#F893BE" opacity="0.95"/>
<path d="M0 -10 C-0.6 -5 -0.8 0 -0.8 5" stroke="#FFE3EF" stroke-width="1.1" fill="none" opacity="0.9"/>
<path d="M0 8 L-4 13 M0 8 L4 13" stroke="#E06A9C" stroke-width="1.3" stroke-linecap="round" opacity="0.9"/>
</g>
<circle cx="78" cy="108" r="1.4" fill="#FFD3E5" opacity="0.85"/>
<circle cx="124" cy="100" r="1.3" fill="#FFC2DC" opacity="0.8"/>
<path d="M70 124 l1.4 3.2 3.2 1.4 -3.2 1.4 -1.4 3.2 -1.4 -3.2 -3.2 -1.4 3.2 -1.4 Z" fill="#FFE3EF" opacity="0.9"/>
</svg>
