<svg xmlns="http://www.w3.org/2000/svg" viewBox="0 0 200 200">
<defs>
<radialGradient id="hp_g"><stop offset="0%" stop-color="#FF9EC4" stop-opacity="0.4"/><stop offset="60%" stop-color="#FF7BB0" stop-opacity="0.18"/><stop offset="100%" stop-color="#FF7BB0" stop-opacity="0"/></radialGradient>
<radialGradient id="hp_burst"><stop offset="0%" stop-color="#FFD3E5" stop-opacity="0.7"/><stop offset="100%" stop-color="#FF9EC4" stop-opacity="0"/></radialGradient>
<linearGradient id="hp_leaf" x1="0" y1="1" x2="0" y2="0"><stop offset="0%" stop-color="#F27BAE" stop-opacity="0.55"/><stop offset="100%" stop-color="#FFD3E5" stop-opacity="0.8"/></linearGradient>
</defs>
<ellipse cx="100" cy="172" rx="54" ry="11" fill="#7A9978" opacity="0.7"/>
<ellipse cx="100" cy="169" rx="50" ry="9" fill="#8FB28A" opacity="0.7"/>
<ellipse cx="100" cy="96" rx="62" ry="58" fill="url(#hp_g)"/>
<!-- chùm sáng gốc -->
<ellipse cx="100" cy="152" rx="30" ry="16" fill="url(#hp_burst)"/>
<path d="M100 152 L82 166 M100 152 L100 170 M100 152 L118 166 M100 152 L74 156 M100 152 L126 156" stroke="#FFC2DC" stroke-width="1.4" opacity="0.7"/>
<!-- thân -->
<path d="M100 160 C99 140 99 120 100 76" stroke="#E06A9C" stroke-width="3.5" fill="none" stroke-linecap="round" opacity="0.9"/>
<path d="M100 160 C99 140 99 120 100 76" stroke="#FFD3E5" stroke-width="1.4" fill="none" stroke-linecap="round"/>
<!-- lá pha lê (đa giác trong mờ viền sáng) -->


<path d="M101 128 L126 116 L142 122 L130 134 L104 132 Z" fill="url(#hp_leaf)" stroke="#FFD3E5" stroke-width="1.4"/>
<path d="M104 130 L138 123" stroke="#FFC2DC" stroke-width="1" opacity="0.8"/>
<path d="M99 144 L78 144 L68 152 L82 156 L98 150 Z" fill="url(#hp_leaf)" stroke="#FFD3E5" stroke-width="1.2" opacity="0.95"/>

<path d="M100 112 L88 100 L88 88 L99 98 Z" fill="url(#hp_leaf)" stroke="#FFD3E5" stroke-width="1.2" opacity="0.9"/>

<!-- bông hồng -->
<g transform="translate(100 58)">
<circle r="22" fill="#FF9EC4" opacity="0.25"/>
<path d="M-16 6 C-21 -6 -15 -17 -4 -19 C-11 -11 -13 -2 -11 8 C-13 9 -15 8 -16 6 Z" fill="#FFC2DC" opacity="0.95"/>
<path d="M16 6 C21 -6 15 -17 4 -19 C11 -11 13 -2 11 8 C13 9 15 8 16 6 Z" fill="#FFB0D2" opacity="0.95"/>
<path d="M-11 8 C-13 -5 -6 -15 0 -17 C6 -15 13 -5 11 8 C5 13 -5 13 -11 8 Z" fill="#F893BE" opacity="0.95"/>
<path d="M-6 -4 C-5 -10 -2 -14 0 -15 C-1 -8 -1.5 -1 -1.5 7" stroke="#FFE3EF" stroke-width="1.4" fill="none" opacity="0.9"/>
<path d="M6 -4 C5 -10 2 -14 0 -15 C1 -8 1.5 -1 1.5 7" stroke="#FFE3EF" stroke-width="1.4" fill="none" opacity="0.9"/>
<path d="M-5 -17 C-3 -21 3 -21 5 -17" stroke="#FFD3E5" stroke-width="1.6" fill="none"/>
<path d="M-10 9 C-4 13 4 13 10 9" fill="none" stroke="#F47FB2" stroke-width="2" opacity="0.85"/>
<path d="M-3 -8 C-1 -12 2 -13 4 -12" stroke="#FFFFFF" stroke-width="1" fill="none" opacity="0.8"/>
<path d="M0 12 L-7 20 M0 12 L7 20 M0 12 L0 22" stroke="#E06A9C" stroke-width="1.6" stroke-linecap="round" opacity="0.9"/>
</g>
<!-- sparkle -->
<path d="M66 78 l1.8 4 4 1.8 -4 1.8 -1.8 4 -1.8 -4 -4 -1.8 4 -1.8 Z" fill="#FFE3EF"/>
<path d="M138 72 l1.5 3.4 3.4 1.5 -3.4 1.5 -1.5 3.4 -1.5 -3.4 -3.4 -1.5 3.4 -1.5 Z" fill="#FFD3E5"/>
<path d="M126 148 l1.4 3.2 3.2 1.4 -3.2 1.4 -1.4 3.2 -1.4 -3.2 -3.2 -1.4 3.2 -1.4 Z" fill="#FFC2DC"/>
<circle cx="58" cy="120" r="1.6" fill="#FFD3E5" opacity="0.9"/>
<circle cx="146" cy="104" r="1.5" fill="#FFC2DC" opacity="0.85"/>
<circle cx="80" cy="42" r="1.4" fill="#FFE3EF" opacity="0.85"/>
<circle cx="124" cy="38" r="1.3" fill="#FFD3E5" opacity="0.8"/>
<path d="M66 166 L72 162 L78 166 L72 170 Z" fill="#FFC2DC" opacity="0.75" stroke="#FFE3EF" stroke-width="0.8"/><path d="M120 169 L125 165 L130 169 L125 172 Z" fill="#FFB0D2" opacity="0.7" stroke="#FFE3EF" stroke-width="0.7"/><path d="M94 173 L98 170 L102 173 L98 176 Z" fill="#F893BE" opacity="0.65"/><path d="M138 162 L141 159 L144 162 L141 165 Z" fill="#FFD3E5" opacity="0.6"/>
</svg>
