<svg xmlns="http://www.w3.org/2000/svg" viewBox="0 0 200 200">
<style>
.huT-h{animation:huT-out 8s ease-in-out forwards;transform-box:fill-box;transform-origin:50% 100%}
@keyframes huT-out{
 0%{opacity:1;filter:none;transform:rotate(0)}
 6%{transform:rotate(-1.2deg)}
 10%{transform:rotate(1.2deg)}
 14%{transform:rotate(-.8deg)}
 30%{filter:grayscale(.35) brightness(.96);opacity:1}
 62%{filter:grayscale(.7) brightness(.9);opacity:.5;transform:rotate(2.6deg)}
 88%,100%{opacity:0;filter:grayscale(.85) brightness(.85);transform:rotate(3.2deg)}}
.huT-w{opacity:0;animation:huT-in 8s ease-in-out forwards}
@keyframes huT-in{0%,32%{opacity:0}55%{opacity:.45}82%,100%{opacity:1}}
</style>
<g class="huT-w">
<ellipse cx="100" cy="174" rx="52" ry="11" fill="#A99A82"/>
<ellipse cx="100" cy="171" rx="48" ry="9" fill="#C6B79C"/>
<path d="M100 170 C100 146 100 122 100 104 C100 96 104 90 110 88" stroke="#8A7B52" stroke-width="5" fill="none" stroke-linecap="round"/>
<path d="M98 142 C86 140 78 132 76 122 C88 124 96 132 98 140 Z" fill="#9A9B6E"/>
<path d="M96 139 C89 136 83 130 81 125" stroke="#7A7B52" stroke-width="1.3" fill="none"/>
<path d="M102 152 C112 148 118 140 119 132 C108 136 102 144 101 150 Z" fill="#8A8B62"/>
<!-- đầu hoa cúi xuống -->
<g transform="translate(113 96) rotate(150)">
<g fill="#B5894E">
<path d="M0 -9 C3 -14 3 -21 0 -25 C-3 -21 -3 -14 0 -9 Z"/>
<path transform="rotate(45)" d="M0 -9 C3 -14 3 -21 0 -25 C-3 -21 -3 -14 0 -9 Z"/>
<path transform="rotate(90)" d="M0 -9 C3 -14 3 -21 0 -25 C-3 -21 -3 -14 0 -9 Z"/>
<path transform="rotate(135)" d="M0 -9 C3 -14 3 -21 0 -25 C-3 -21 -3 -14 0 -9 Z"/>
<path transform="rotate(180)" d="M0 -9 C3 -14 3 -21 0 -25 C-3 -21 -3 -14 0 -9 Z"/>
<path transform="rotate(225)" d="M0 -9 C3 -14 3 -21 0 -25 C-3 -21 -3 -14 0 -9 Z"/>
<path transform="rotate(270)" d="M0 -9 C3 -14 3 -21 0 -25 C-3 -21 -3 -14 0 -9 Z"/>
<path transform="rotate(315)" d="M0 -9 C3 -14 3 -21 0 -25 C-3 -21 -3 -14 0 -9 Z"/>
</g>
<circle r="10" fill="#4E3A22"/>
<circle cx="0" cy="0" r="1"/><circle cx="3" cy="2" r="0.9" fill="#6E563A"/><circle cx="-3" cy="2" r="0.9" fill="#6E563A"/><circle cx="0" cy="-3" r="0.9" fill="#6E563A"/>
</g>
<ellipse cx="86" cy="167" rx="4" ry="2" fill="#B5894E"/>
<ellipse cx="118" cy="169" rx="3.5" ry="1.8" fill="#9A7440"/>
<ellipse cx="100" cy="172" rx="3.5" ry="1.8" fill="#B5894E"/>
</g>
<g class="huT-h">
<defs>
<linearGradient id="hd_p" x1="0" y1="1" x2="0" y2="0">
<stop offset="0%" stop-color="#E8960C"/><stop offset="100%" stop-color="#FFD23F"/>
</linearGradient>
<radialGradient id="hd_c"><stop offset="0%" stop-color="#7A4A1E"/><stop offset="80%" stop-color="#5C3414"/><stop offset="100%" stop-color="#46260C"/></radialGradient>
</defs>
<ellipse cx="100" cy="174" rx="52" ry="11" fill="#79B364"/>
<ellipse cx="100" cy="171" rx="48" ry="9" fill="#94CE7A"/>
<!-- thân -->
<path d="M98 170 C98 140 99 110 100 84" stroke="#4E8C3A" stroke-width="6" fill="none" stroke-linecap="round"/>
<path d="M99 168 C99 144 99.5 120 100 92" stroke="#66B04B" stroke-width="2.4" fill="none"/>
<!-- lá có gân -->
<path d="M98 132 C82 128 72 116 72 102 C88 104 98 116 99 130 Z" fill="#4E8C3A"/>
<path d="M96 128 C86 124 79 114 78 106" stroke="#356B26" stroke-width="1.6" fill="none"/>
<path d="M90 122 q-4 -1 -7 -4 M93 126 q-5 -1 -8 -4" stroke="#356B26" stroke-width="1.1" fill="none"/>
<path d="M102 144 C118 140 128 128 128 114 C112 116 102 128 101 142 Z" fill="#5FA34A"/>
<path d="M104 140 C114 136 121 126 122 118" stroke="#3E7A2E" stroke-width="1.6" fill="none"/>
<path d="M110 134 q4 -1 7 -4 M107 138 q5 -1 8 -4" stroke="#3E7A2E" stroke-width="1.1" fill="none"/>
<!-- bông phụ (nụ) -->
<path d="M132 96 C132 86 136 78 144 74 C146 84 142 92 134 96 Z" fill="#5FA34A"/>
<circle cx="143" cy="71" r="6" fill="#E8960C"/>
<circle cx="143" cy="71" r="3" fill="#5C3414"/>
<path d="M120 110 C126 102 134 98 141 74" stroke="#4E8C3A" stroke-width="3" fill="none" stroke-linecap="round"/>
<!-- bông chính: 2 lớp cánh -->
<g transform="translate(100 56)">
<g fill="#D9820A">
<path transform="rotate(15)" d="M0 -12 C4 -20 4 -30 0 -36 C-4 -30 -4 -20 0 -12 Z"/>
<path transform="rotate(45)" d="M0 -12 C4 -20 4 -30 0 -36 C-4 -30 -4 -20 0 -12 Z"/>
<path transform="rotate(75)" d="M0 -12 C4 -20 4 -30 0 -36 C-4 -30 -4 -20 0 -12 Z"/>
<path transform="rotate(105)" d="M0 -12 C4 -20 4 -30 0 -36 C-4 -30 -4 -20 0 -12 Z"/>
<path transform="rotate(135)" d="M0 -12 C4 -20 4 -30 0 -36 C-4 -30 -4 -20 0 -12 Z"/>
<path transform="rotate(165)" d="M0 -12 C4 -20 4 -30 0 -36 C-4 -30 -4 -20 0 -12 Z"/>
<path transform="rotate(195)" d="M0 -12 C4 -20 4 -30 0 -36 C-4 -30 -4 -20 0 -12 Z"/>
<path transform="rotate(225)" d="M0 -12 C4 -20 4 -30 0 -36 C-4 -30 -4 -20 0 -12 Z"/>
<path transform="rotate(255)" d="M0 -12 C4 -20 4 -30 0 -36 C-4 -30 -4 -20 0 -12 Z"/>
<path transform="rotate(285)" d="M0 -12 C4 -20 4 -30 0 -36 C-4 -30 -4 -20 0 -12 Z"/>
<path transform="rotate(315)" d="M0 -12 C4 -20 4 -30 0 -36 C-4 -30 -4 -20 0 -12 Z"/>
<path transform="rotate(345)" d="M0 -12 C4 -20 4 -30 0 -36 C-4 -30 -4 -20 0 -12 Z"/>
</g>
<g fill="url(#hd_p)">
<path d="M0 -12 C4.5 -21 4.5 -32 0 -38 C-4.5 -32 -4.5 -21 0 -12 Z"/>
<path transform="rotate(30)" d="M0 -12 C4.5 -21 4.5 -32 0 -38 C-4.5 -32 -4.5 -21 0 -12 Z"/>
<path transform="rotate(60)" d="M0 -12 C4.5 -21 4.5 -32 0 -38 C-4.5 -32 -4.5 -21 0 -12 Z"/>
<path transform="rotate(90)" d="M0 -12 C4.5 -21 4.5 -32 0 -38 C-4.5 -32 -4.5 -21 0 -12 Z"/>
<path transform="rotate(120)" d="M0 -12 C4.5 -21 4.5 -32 0 -38 C-4.5 -32 -4.5 -21 0 -12 Z"/>
<path transform="rotate(150)" d="M0 -12 C4.5 -21 4.5 -32 0 -38 C-4.5 -32 -4.5 -21 0 -12 Z"/>
<path transform="rotate(180)" d="M0 -12 C4.5 -21 4.5 -32 0 -38 C-4.5 -32 -4.5 -21 0 -12 Z"/>
<path transform="rotate(210)" d="M0 -12 C4.5 -21 4.5 -32 0 -38 C-4.5 -32 -4.5 -21 0 -12 Z"/>
<path transform="rotate(240)" d="M0 -12 C4.5 -21 4.5 -32 0 -38 C-4.5 -32 -4.5 -21 0 -12 Z"/>
<path transform="rotate(270)" d="M0 -12 C4.5 -21 4.5 -32 0 -38 C-4.5 -32 -4.5 -21 0 -12 Z"/>
<path transform="rotate(300)" d="M0 -12 C4.5 -21 4.5 -32 0 -38 C-4.5 -32 -4.5 -21 0 -12 Z"/>
<path transform="rotate(330)" d="M0 -12 C4.5 -21 4.5 -32 0 -38 C-4.5 -32 -4.5 -21 0 -12 Z"/>
</g>
<circle r="14" fill="url(#hd_c)"/>
<circle r="14" fill="none" stroke="#8A5A28" stroke-width="1.5"/>
<g fill="#8A5A28">
<circle cx="0" cy="0" r="1.2"/><circle cx="4" cy="2" r="1.1"/><circle cx="-4" cy="2" r="1.1"/>
<circle cx="2" cy="-4" r="1.1"/><circle cx="-2" cy="-4" r="1.1"/><circle cx="7" cy="-2" r="1"/>
<circle cx="-7" cy="-2" r="1"/><circle cx="0" cy="6" r="1.1"/><circle cx="6" cy="6" r="0.9"/>
<circle cx="-6" cy="6" r="0.9"/><circle cx="0" cy="-8" r="1"/><circle cx="9" cy="3" r="0.9"/><circle cx="-9" cy="3" r="0.9"/>
</g>
</g>
<path d="M70 169 q1 -6 3 -8 q1 5 0 8 Z" fill="#5FA34A"/>
<path d="M130 170 q2 -5 4 -7 q1 5 -1 7 Z" fill="#6FB75A"/>
</g>
</svg>