<svg xmlns="http://www.w3.org/2000/svg" viewBox="0 0 200 200">
<ellipse cx="100" cy="174" rx="52" ry="11" fill="#A99A82"/>
<ellipse cx="100" cy="171" rx="48" ry="9" fill="#C6B79C"/>
<path d="M100 170 C100 146 100 122 100 104 C100 96 104 90 110 88" stroke="#8A7B52" stroke-width="5" fill="none" stroke-linecap="round"/>
<path d="M98 142 C86 140 78 132 76 122 C88 124 96 132 98 140 Z" fill="#9A9B6E"/>
<path d="M96 139 C89 136 83 130 81 125" stroke="#7A7B52" stroke-width="1.3" fill="none"/>
<path d="M102 152 C112 148 118 140 119 132 C108 136 102 144 101 150 Z" fill="#8A8B62"/>
<!-- đầu hoa cúi xuống -->
<g transform="translate(113 96) rotate(150)">
<g fill="#B5894E">
<path d="M0 -9 C3 -14 3 -21 0 -25 C-3 -21 -3 -14 0 -9 Z"/>
<path transform="rotate(45)" d="M0 -9 C3 -14 3 -21 0 -25 C-3 -21 -3 -14 0 -9 Z"/>
<path transform="rotate(90)" d="M0 -9 C3 -14 3 -21 0 -25 C-3 -21 -3 -14 0 -9 Z"/>
<path transform="rotate(135)" d="M0 -9 C3 -14 3 -21 0 -25 C-3 -21 -3 -14 0 -9 Z"/>
<path transform="rotate(180)" d="M0 -9 C3 -14 3 -21 0 -25 C-3 -21 -3 -14 0 -9 Z"/>
<path transform="rotate(225)" d="M0 -9 C3 -14 3 -21 0 -25 C-3 -21 -3 -14 0 -9 Z"/>
<path transform="rotate(270)" d="M0 -9 C3 -14 3 -21 0 -25 C-3 -21 -3 -14 0 -9 Z"/>
<path transform="rotate(315)" d="M0 -9 C3 -14 3 -21 0 -25 C-3 -21 -3 -14 0 -9 Z"/>
</g>
<circle r="10" fill="#4E3A22"/>
<circle cx="0" cy="0" r="1"/><circle cx="3" cy="2" r="0.9" fill="#6E563A"/><circle cx="-3" cy="2" r="0.9" fill="#6E563A"/><circle cx="0" cy="-3" r="0.9" fill="#6E563A"/>
</g>
<ellipse cx="86" cy="167" rx="4" ry="2" fill="#B5894E"/>
<ellipse cx="118" cy="169" rx="3.5" ry="1.8" fill="#9A7440"/>
<ellipse cx="100" cy="172" rx="3.5" ry="1.8" fill="#B5894E"/>
</svg>
