<svg xmlns="http://www.w3.org/2000/svg" viewBox="0 0 200 200">
<defs>
<linearGradient id="h3p" x1="0" y1="1" x2="0" y2="0"><stop offset="0%" stop-color="#E8960C"/><stop offset="100%" stop-color="#FFD23F"/></linearGradient>
<radialGradient id="h3c"><stop offset="0%" stop-color="#7A4A1E"/><stop offset="80%" stop-color="#5C3414"/><stop offset="100%" stop-color="#46260C"/></radialGradient>
</defs>
<ellipse cx="100" cy="174" rx="52" ry="11" fill="#79B364"/>
<ellipse cx="100" cy="171" rx="48" ry="9" fill="#94CE7A"/>
<path d="M99 170 C99 144 99 120 100 96" stroke="#4E8C3A" stroke-width="5.5" fill="none" stroke-linecap="round"/>
<path d="M98 138 C84 134 75 123 74 110 C89 112 98 123 99 136 Z" fill="#4E8C3A"/>
<path d="M96 134 C87 130 81 121 80 114" stroke="#356B26" stroke-width="1.5" fill="none"/>
<path d="M102 150 C116 146 125 135 126 122 C111 124 102 135 101 148 Z" fill="#5FA34A"/>
<path d="M104 146 C113 142 119 133 120 126" stroke="#3E7A2E" stroke-width="1.5" fill="none"/>
<g transform="translate(100 74)">
<g fill="url(#h3p)">
<path d="M0 -10 C3.5 -16 3.5 -24 0 -29 C-3.5 -24 -3.5 -16 0 -10 Z"/>
<path transform="rotate(45)" d="M0 -10 C3.5 -16 3.5 -24 0 -29 C-3.5 -24 -3.5 -16 0 -10 Z"/>
<path transform="rotate(90)" d="M0 -10 C3.5 -16 3.5 -24 0 -29 C-3.5 -24 -3.5 -16 0 -10 Z"/>
<path transform="rotate(135)" d="M0 -10 C3.5 -16 3.5 -24 0 -29 C-3.5 -24 -3.5 -16 0 -10 Z"/>
<path transform="rotate(180)" d="M0 -10 C3.5 -16 3.5 -24 0 -29 C-3.5 -24 -3.5 -16 0 -10 Z"/>
<path transform="rotate(225)" d="M0 -10 C3.5 -16 3.5 -24 0 -29 C-3.5 -24 -3.5 -16 0 -10 Z"/>
<path transform="rotate(270)" d="M0 -10 C3.5 -16 3.5 -24 0 -29 C-3.5 -24 -3.5 -16 0 -10 Z"/>
<path transform="rotate(315)" d="M0 -10 C3.5 -16 3.5 -24 0 -29 C-3.5 -24 -3.5 -16 0 -10 Z"/>
</g>
<g fill="#5FA34A">
<path transform="rotate(22)" d="M0 -11 C2.5 -15 2.5 -20 0 -23 C-2.5 -20 -2.5 -15 0 -11 Z"/>
<path transform="rotate(112)" d="M0 -11 C2.5 -15 2.5 -20 0 -23 C-2.5 -20 -2.5 -15 0 -11 Z"/>
<path transform="rotate(202)" d="M0 -11 C2.5 -15 2.5 -20 0 -23 C-2.5 -20 -2.5 -15 0 -11 Z"/>
<path transform="rotate(292)" d="M0 -11 C2.5 -15 2.5 -20 0 -23 C-2.5 -20 -2.5 -15 0 -11 Z"/>
</g>
<circle r="11" fill="url(#h3c)"/>
<circle r="11" fill="none" stroke="#8A5A28" stroke-width="1.3"/>
<g fill="#8A5A28">
<circle cx="0" cy="0" r="1.1"/><circle cx="4" cy="2" r="1"/><circle cx="-4" cy="2" r="1"/>
<circle cx="2" cy="-4" r="1"/><circle cx="-2" cy="-4" r="1"/><circle cx="0" cy="5" r="1"/>
<circle cx="6" cy="-1" r="0.9"/><circle cx="-6" cy="-1" r="0.9"/>
</g>
</g>
<path d="M74 170 q1 -5 3 -7 q1 4 0 7 Z" fill="#5FA34A"/>
<path d="M128 171 q2 -4 4 -6 q1 4 -1 6 Z" fill="#6FB75A"/>
</svg>
