<svg xmlns="http://www.w3.org/2000/svg" viewBox="0 0 200 200">
<defs>
<radialGradient id="n3c" cx="40%" cy="30%"><stop offset="0%" stop-color="#F25C54"/><stop offset="70%" stop-color="#D7263D"/><stop offset="100%" stop-color="#A61B2E"/></radialGradient>
<radialGradient id="n3c2" cx="40%" cy="30%"><stop offset="0%" stop-color="#FF8A5C"/><stop offset="70%" stop-color="#E85D3A"/><stop offset="100%" stop-color="#C2462A"/></radialGradient>
<linearGradient id="n3s" x1="0" y1="0" x2="1" y2="0"><stop offset="0%" stop-color="#F2E3C6"/><stop offset="50%" stop-color="#FFF6E3"/><stop offset="100%" stop-color="#D9C49E"/></linearGradient>
</defs>
<ellipse cx="100" cy="174" rx="54" ry="11" fill="#79B364"/>
<ellipse cx="100" cy="171" rx="50" ry="9" fill="#94CE7A"/>
<path d="M94 169 C94 150 96 138 98 128 L110 128 C112 140 113 154 113 169 Z" fill="url(#n3s)"/>
<path d="M97 152 C101 154 107 154 110 152 M96 160 C101 162 107 162 111 160" stroke="#C9B28A" stroke-width="1.3" fill="none"/>
<path d="M74 130 C74 108 88 96 103 96 C118 96 132 108 132 130 Z" fill="url(#n3c)"/>
<path d="M74 130 L132 130 C128 136 116 139 103 139 C90 139 78 136 74 130 Z" fill="#8E1B2C"/>
<path d="M80 130 L126 130 M88 134 L118 134" stroke="#6E1322" stroke-width="1.1" fill="none" opacity="0.6"/>
<ellipse cx="90" cy="108" rx="6" ry="4" fill="#FFE3E0" opacity="0.95"/>
<ellipse cx="112" cy="104" rx="4" ry="2.8" fill="#FFE3E0" opacity="0.9"/>
<ellipse cx="100" cy="118" rx="3.4" ry="2.2" fill="#FFE3E0" opacity="0.85"/>
<ellipse cx="121" cy="116" rx="3.6" ry="2.4" fill="#FFE3E0" opacity="0.85"/>
<path d="M128 168 C128 161 129 156 130 152 L136 152 C137 157 138 162 138 168 Z" fill="url(#n3s)"/>
<path d="M119 153 C119 144 125 138 132 138 C139 138 145 144 145 153 Z" fill="url(#n3c2)"/>
<path d="M119 153 L145 153 C142 156 137 157 132 157 C127 157 122 156 119 153 Z" fill="#B3402A"/>
<ellipse cx="128" cy="145" rx="3" ry="2" fill="#FFD9C2" opacity="0.9"/>
<path d="M64 168 C59 162 58 155 61 149 C65 154 67 161 66 167 Z" fill="#5FA34A"/>
<path d="M62 164 q-3 -2 -5 -5" stroke="#3E7A2E" stroke-width="1" fill="none"/>
<path d="M84 170 q1 -6 3 -8 q1 5 0 8 Z" fill="#6FB75A"/>
<circle cx="80" cy="92" r="1.4" fill="#FFE3E0" opacity="0.75"/>
<circle cx="126" cy="86" r="1.3" fill="#FFE3E0" opacity="0.7"/>
</svg>
