<svg xmlns="http://www.w3.org/2000/svg" viewBox="0 0 200 200">
<defs>
<radialGradient id="n2c" cx="40%" cy="30%"><stop offset="0%" stop-color="#F25C54"/><stop offset="70%" stop-color="#D7263D"/><stop offset="100%" stop-color="#A61B2E"/></radialGradient>
<linearGradient id="n2s" x1="0" y1="0" x2="1" y2="0"><stop offset="0%" stop-color="#F2E3C6"/><stop offset="50%" stop-color="#FFF6E3"/><stop offset="100%" stop-color="#D9C49E"/></linearGradient>
</defs>
<ellipse cx="100" cy="174" rx="54" ry="11" fill="#79B364"/>
<ellipse cx="100" cy="171" rx="50" ry="9" fill="#94CE7A"/>
<path d="M94 169 C94 156 95 147 96 140 L106 140 C107 148 108 158 108 169 Z" fill="url(#n2s)"/>
<path d="M96 158 C100 160 104 160 106 158" stroke="#C9B28A" stroke-width="1.2" fill="none"/>
<path d="M80 142 C80 126 90 116 101 116 C112 116 122 126 122 142 Z" fill="url(#n2c)"/>
<path d="M80 142 L122 142 C118 147 110 149 101 149 C92 149 84 147 80 142 Z" fill="#8E1B2C"/>
<path d="M86 142 L116 142 M92 145 L110 145" stroke="#6E1322" stroke-width="1" fill="none" opacity="0.6"/>
<ellipse cx="92" cy="126" rx="4.5" ry="3" fill="#FFE3E0" opacity="0.95"/>
<ellipse cx="108" cy="123" rx="3" ry="2" fill="#FFE3E0" opacity="0.9"/>
<ellipse cx="100" cy="134" rx="2.6" ry="1.8" fill="#FFE3E0" opacity="0.85"/>
<path d="M80 168 q1 -5 3 -7 q1 4 0 7 Z" fill="#5FA34A"/>
<path d="M120 169 q2 -4 4 -6 q0 4 -2 6 Z" fill="#6FB75A"/>
<circle cx="84" cy="110" r="1.3" fill="#FFE3E0" opacity="0.7"/>
</svg>
