<svg xmlns="http://www.w3.org/2000/svg" viewBox="0 0 200 200">
<defs>
<radialGradient id="nt_cap" cx="40%" cy="30%"><stop offset="0%" stop-color="#F25C54"/><stop offset="70%" stop-color="#D7263D"/><stop offset="100%" stop-color="#A61B2E"/></radialGradient>
<radialGradient id="nt_cap2" cx="40%" cy="30%"><stop offset="0%" stop-color="#FF8A5C"/><stop offset="70%" stop-color="#E85D3A"/><stop offset="100%" stop-color="#C2462A"/></radialGradient>
<linearGradient id="nt_st" x1="0" y1="0" x2="1" y2="0"><stop offset="0%" stop-color="#F2E3C6"/><stop offset="50%" stop-color="#FFF6E3"/><stop offset="100%" stop-color="#D9C49E"/></linearGradient>
</defs>
<ellipse cx="100" cy="174" rx="54" ry="11" fill="#79B364"/>
<ellipse cx="100" cy="171" rx="50" ry="9" fill="#94CE7A"/>
<!-- nấm nhỏ trái -->
<path d="M66 168 C66 156 67 148 68 142 L76 142 C77 150 78 158 78 168 Z" fill="url(#nt_st)"/>
<path d="M48 144 C48 128 60 118 72 118 C84 118 94 128 94 144 Z" fill="url(#nt_cap2)"/>
<path d="M48 144 L94 144 C90 149 80 151 71 151 C62 151 52 149 48 144 Z" fill="#B3402A"/>
<path d="M52 144 L90 144 M58 147 L84 147" stroke="#8E3220" stroke-width="1.2" fill="none" opacity="0.6"/>
<ellipse cx="62" cy="129" rx="5" ry="3.5" fill="#FFD9C2" opacity="0.95"/>
<ellipse cx="78" cy="125" rx="3.5" ry="2.5" fill="#FFD9C2" opacity="0.9"/>
<ellipse cx="56" cy="137" rx="3" ry="2" fill="#FFD9C2" opacity="0.85"/>
<!-- nấm lớn giữa -->
<path d="M92 169 C92 148 94 134 96 122 L110 122 C112 136 114 152 114 169 Z" fill="url(#nt_st)"/>
<path d="M96 152 C100 154 106 154 110 152" stroke="#C9B28A" stroke-width="1.4" fill="none"/>
<path d="M95 160 C100 162 107 162 111 160" stroke="#C9B28A" stroke-width="1.4" fill="none"/>
<path d="M70 124 C70 100 86 86 103 86 C120 86 136 100 136 124 Z" fill="url(#nt_cap)"/>
<path d="M70 124 L136 124 C131 131 117 134 103 134 C89 134 75 131 70 124 Z" fill="#8E1B2C"/>
<path d="M76 124 L130 124 M84 128 L122 128 M94 131 L112 131" stroke="#6E1322" stroke-width="1.2" fill="none" opacity="0.6"/>
<ellipse cx="88" cy="100" rx="7" ry="5" fill="#FFE3E0" opacity="0.95"/>
<ellipse cx="112" cy="95" rx="5" ry="3.5" fill="#FFE3E0" opacity="0.9"/>
<ellipse cx="100" cy="110" rx="4" ry="2.6" fill="#FFE3E0" opacity="0.85"/>
<ellipse cx="124" cy="108" rx="4.5" ry="3" fill="#FFE3E0" opacity="0.85"/>
<ellipse cx="80" cy="113" rx="3.5" ry="2.2" fill="#FFE3E0" opacity="0.8"/>
<!-- nấm bé phải -->
<path d="M130 168 C130 160 131 154 132 150 L138 150 C139 155 140 161 140 168 Z" fill="url(#nt_st)"/>
<path d="M120 151 C120 141 127 134 135 134 C143 134 150 141 150 151 Z" fill="url(#nt_cap2)"/>
<path d="M120 151 L150 151 C147 155 141 156 135 156 C129 156 123 155 120 151 Z" fill="#B3402A"/>
<ellipse cx="130" cy="141" rx="3.5" ry="2.4" fill="#FFD9C2" opacity="0.9"/>
<ellipse cx="141" cy="144" rx="2.5" ry="1.8" fill="#FFD9C2" opacity="0.85"/>
<!-- dương xỉ + cỏ -->
<path d="M58 168 C52 162 50 154 53 148 C57 153 60 160 60 166 Z" fill="#5FA34A"/>
<path d="M55 165 q-4 -2 -6 -6 M57 160 q-4 -2 -5 -5" stroke="#3E7A2E" stroke-width="1.1" fill="none"/>
<path d="M146 167 C152 162 154 155 152 149 C148 154 145 160 145 166 Z" fill="#5FA34A"/>
<path d="M86 170 q1 -7 4 -9 q1 6 -1 9 Z" fill="#6FB75A"/>
<path d="M118 171 q2 -5 5 -7 q0 5 -2 7 Z" fill="#5FA34A"/>
<!-- bào tử bay nhẹ -->
<circle cx="74" cy="106" r="1.6" fill="#FFE3E0" opacity="0.8"/>
<circle cx="142" cy="120" r="1.4" fill="#FFE3E0" opacity="0.7"/>
<circle cx="108" cy="76" r="1.6" fill="#FFE3E0" opacity="0.7"/>
</svg>
