<svg xmlns="http://www.w3.org/2000/svg" viewBox="0 0 200 200">
<defs><radialGradient id="pg4"><stop offset="0%" stop-color="#FFE9A8" stop-opacity="0.35"/><stop offset="100%" stop-color="#FFE9A8" stop-opacity="0"/></radialGradient></defs>
<ellipse cx="100" cy="171" rx="50" ry="11" fill="#7DB46C"/>
<ellipse cx="100" cy="168" rx="48" ry="10" fill="#A6D98C"/>
<ellipse cx="100" cy="102" rx="60" ry="54" fill="url(#pg4)"/>
<path d="M96 169 C96 160 97 154 98 148 L102 148 C103 154 104 160 104 169 Z" fill="#8A5A3B"/>
<path d="M86 124 C62 120 48 102 46 80 C56 86 66 94 74 104 C68 94 66 86 68 78 C78 90 86 106 88 118 Z" fill="#FF8C42"/>
<path d="M114 124 C138 120 152 102 154 80 C144 86 134 94 126 104 C132 94 134 86 132 78 C122 90 114 106 112 118 Z" fill="#FF8C42"/>
<path d="M84 118 C70 112 60 102 58 90 C70 96 80 106 83 114 Z" fill="#FFA94D"/>
<path d="M116 118 C130 112 140 102 142 90 C130 96 120 106 117 114 Z" fill="#FFA94D"/>
<path d="M76 130 C68 118 70 106 78 98 C82 108 84 120 82 128 Z" fill="#FFA94D"/>
<path d="M124 130 C132 118 130 106 122 98 C118 108 116 120 118 128 Z" fill="#FFA94D"/>
<path d="M100 148 C72 132 78 100 100 78 C122 100 128 132 100 148 Z" fill="#FF8C42"/>
<path d="M100 142 C82 128 87 104 100 90 C113 104 118 128 100 142 Z" fill="#FFA94D"/>
<path d="M100 136 C89 126 92 110 100 100 C108 110 111 126 100 136 Z" fill="#FFD166"/>
<path d="M100 129 C95 124 96 113 100 108 C104 113 105 124 100 129 Z" fill="#FFF3C4"/>
<ellipse cx="100" cy="66" rx="23" ry="7" stroke="#FFD166" stroke-width="3" fill="none" opacity="0.95"/>
<circle cx="66" cy="60" r="2" fill="#FFB070"/>
<circle cx="138" cy="64" r="2" fill="#FFB070"/>
<circle cx="100" cy="50" r="2" fill="#FFD166"/>
<path d="M52 104 l2 4.5 4.5 2 -4.5 2 -2 4.5 -2 -4.5 -4.5 -2 4.5 -2 Z" fill="#FFE9A8"/>
<path d="M148 110 l1.8 4 4 1.8 -4 1.8 -1.8 4 -1.8 -4 -4 -1.8 4 -1.8 Z" fill="#FFE9A8"/>
<path d="M126 40 l1.5 3.5 3.5 1.5 -3.5 1.5 -1.5 3.5 -1.5 -3.5 -3.5 -1.5 3.5 -1.5 Z" fill="#FFE9A8"/>
</svg>
