<svg xmlns="http://www.w3.org/2000/svg" viewBox="0 0 200 200">
<ellipse cx="100" cy="171" rx="50" ry="11" fill="#A99A82"/>
<ellipse cx="100" cy="168" rx="48" ry="10" fill="#C6B79C"/>
<path d="M99 132 C91 124 83 118 75 114" stroke="#75644F" stroke-width="5" fill="none" stroke-linecap="round"/>
<path d="M101 132 C109 124 117 118 125 114" stroke="#75644F" stroke-width="5" fill="none" stroke-linecap="round"/>
<path d="M95 169 C96 150 97 138 98 126 L102 126 C103 140 104 152 105 169 Z" fill="#75644F"/>
<path d="M100 96 L100 80" stroke="#75644F" stroke-width="3" stroke-linecap="round"/>
<ellipse cx="100" cy="102" rx="38" ry="16" fill="#8E9678"/>
<ellipse cx="100" cy="99" rx="34" ry="13" fill="#A3AB8B"/>
<ellipse cx="72" cy="113" rx="14" ry="8" fill="#8E9678"/>
<ellipse cx="128" cy="113" rx="14" ry="8" fill="#8E9678"/>
<circle cx="84" cy="104" r="2.5" fill="#A06A4A"/>
<circle cx="114" cy="100" r="2.5" fill="#A06A4A"/>
<circle cx="98" cy="108" r="2" fill="#8A5A3E"/>
<ellipse cx="74" cy="166" rx="3.5" ry="1.6" fill="#A06A4A"/>
<ellipse cx="122" cy="168" rx="3" ry="1.5" fill="#8A5A3E"/>
<ellipse cx="100" cy="172" rx="3" ry="1.5" fill="#A06A4A"/>
</svg>
