<svg xmlns="http://www.w3.org/2000/svg" viewBox="0 0 200 200">
<ellipse cx="100" cy="171" rx="50" ry="11" fill="#7DB46C"/>
<ellipse cx="100" cy="168" rx="48" ry="10" fill="#A6D98C"/>
<path d="M99 132 C92 124 85 119 78 115" stroke="#7E5A36" stroke-width="4" fill="none" stroke-linecap="round"/>
<path d="M101 132 C108 124 115 119 122 115" stroke="#7E5A36" stroke-width="4" fill="none" stroke-linecap="round"/>
<path d="M96 169 C96 150 97 138 98 128 L102 128 C103 140 104 152 104 169 Z" fill="#7E5A36"/>
<ellipse cx="100" cy="108" rx="33" ry="18" fill="#4F9E4A"/>
<ellipse cx="100" cy="104" rx="29" ry="15" fill="#63B45C"/>
<ellipse cx="88" cy="98" rx="10" ry="6" fill="#7BC973" opacity="0.8"/>
<circle cx="82" cy="104" r="3" fill="#E84545"/><circle cx="86" cy="107" r="2.5" fill="#F25C5C"/>
<circle cx="112" cy="99" r="3" fill="#E84545"/><circle cx="116" cy="102" r="2.5" fill="#F25C5C"/>
<circle cx="98" cy="112" r="3" fill="#E84545"/><circle cx="102" cy="114" r="2.5" fill="#F25C5C"/>
<circle cx="125" cy="140" r="2" fill="#F25C5C"/>
<ellipse cx="80" cy="166" rx="3" ry="1.5" fill="#F25C5C"/>
</svg>
