<svg xmlns="http://www.w3.org/2000/svg" viewBox="0 0 200 200">
<defs>
<linearGradient id="sh_b" x1="0" y1="1" x2="0" y2="0"><stop offset="0%" stop-color="#3D5A99"/><stop offset="100%" stop-color="#7FB2E5"/></linearGradient>
<radialGradient id="sh_g"><stop offset="0%" stop-color="#FFE066" stop-opacity="0.5"/><stop offset="100%" stop-color="#FFE066" stop-opacity="0"/></radialGradient>
<linearGradient id="sh_shell" x1="0" y1="0" x2="0" y2="1"><stop offset="0%" stop-color="#FFD9E2"/><stop offset="100%" stop-color="#F2A3B8"/></linearGradient>
</defs>
<ellipse cx="100" cy="172" rx="56" ry="12" fill="#7FB2A3"/>
<ellipse cx="100" cy="169" rx="52" ry="10" fill="#9CCCBC"/>
<!-- vỏ sò -->
<path d="M68 162 C68 146 82 136 100 136 C118 136 132 146 132 162 C122 168 110 170 100 170 C90 170 78 168 68 162 Z" fill="url(#sh_shell)"/>
<path d="M100 138 L100 166 M84 142 L92 165 M116 142 L108 165 M73 150 L84 163 M127 150 L116 163" stroke="#D87A95" stroke-width="1.6" fill="none" opacity="0.7"/>
<!-- nhánh san hô -->
<path d="M100 140 C98 120 96 100 88 84 C86 78 82 72 76 68" stroke="url(#sh_b)" stroke-width="8" fill="none" stroke-linecap="round"/>
<path d="M100 142 C104 118 108 98 118 82 C121 76 126 70 132 66" stroke="url(#sh_b)" stroke-width="8" fill="none" stroke-linecap="round"/>
<path d="M99 138 C99 116 100 96 100 78 C100 70 100 62 100 56" stroke="url(#sh_b)" stroke-width="9" fill="none" stroke-linecap="round"/>
<path d="M97 112 C88 104 80 100 70 98" stroke="url(#sh_b)" stroke-width="6" fill="none" stroke-linecap="round"/>
<path d="M103 108 C112 102 122 98 132 98" stroke="url(#sh_b)" stroke-width="6" fill="none" stroke-linecap="round"/>
<path d="M88 84 C82 82 76 82 70 84" stroke="url(#sh_b)" stroke-width="5" fill="none" stroke-linecap="round"/>
<path d="M118 84 C124 80 130 80 136 82" stroke="url(#sh_b)" stroke-width="5" fill="none" stroke-linecap="round"/>
<!-- sao phát sáng ở ngọn -->
<circle cx="100" cy="54" r="12" fill="url(#sh_g)"/>
<path d="M100 46 l2.4 5.4 5.4 2.4 -5.4 2.4 -2.4 5.4 -2.4 -5.4 -5.4 -2.4 5.4 -2.4 Z" fill="#FFE066"/>
<circle cx="76" cy="66" r="10" fill="url(#sh_g)"/>
<path d="M76 60 l2 4.4 4.4 2 -4.4 2 -2 4.4 -2 -4.4 -4.4 -2 4.4 -2 Z" fill="#FFE066"/>
<circle cx="132" cy="64" r="10" fill="url(#sh_g)"/>
<path d="M132 58 l2 4.4 4.4 2 -4.4 2 -2 4.4 -2 -4.4 -4.4 -2 4.4 -2 Z" fill="#FFE066"/>
<circle cx="70" cy="97" r="8" fill="url(#sh_g)"/>
<path d="M70 92 l1.7 3.8 3.8 1.7 -3.8 1.7 -1.7 3.8 -1.7 -3.8 -3.8 -1.7 3.8 -1.7 Z" fill="#FFD23F"/>
<circle cx="132" cy="97" r="8" fill="url(#sh_g)"/>
<path d="M132 92 l1.7 3.8 3.8 1.7 -3.8 1.7 -1.7 3.8 -1.7 -3.8 -3.8 -1.7 3.8 -1.7 Z" fill="#FFD23F"/>
<circle cx="70" cy="83" r="6" fill="url(#sh_g)"/>
<path d="M70 79 l1.4 3 3 1.4 -3 1.4 -1.4 3 -1.4 -3 -3 -1.4 3 -1.4 Z" fill="#FFD23F"/>
<circle cx="136" cy="81" r="6" fill="url(#sh_g)"/>
<path d="M136 77 l1.4 3 3 1.4 -3 1.4 -1.4 3 -1.4 -3 -3 -1.4 3 -1.4 Z" fill="#FFD23F"/>
<!-- bong bóng -->
<circle cx="58" cy="120" r="3" fill="none" stroke="#BFE3FF" stroke-width="1.2" opacity="0.8"/>
<circle cx="146" cy="116" r="2.5" fill="none" stroke="#BFE3FF" stroke-width="1.2" opacity="0.8"/>
<circle cx="62" cy="106" r="1.8" fill="none" stroke="#BFE3FF" stroke-width="1" opacity="0.7"/>
<circle cx="150" cy="100" r="1.8" fill="none" stroke="#BFE3FF" stroke-width="1" opacity="0.7"/>
<!-- rong -->
<path d="M62 166 C58 158 60 150 64 144 C66 152 66 160 64 166 Z" fill="#4E9E78"/>
<path d="M140 166 C144 158 142 150 138 144 C136 152 136 160 138 166 Z" fill="#4E9E78"/>
</svg>
