<svg xmlns="http://www.w3.org/2000/svg" viewBox="0 0 200 200">
<defs><radialGradient id="s1w" cx="50%" cy="40%"><stop offset="0%" stop-color="#6FCFC3"/><stop offset="100%" stop-color="#3E9E96"/></radialGradient></defs>
<ellipse cx="100" cy="168" rx="60" ry="14" fill="url(#s1w)"/>
<ellipse cx="100" cy="166" rx="56" ry="12" fill="#54B8AC" opacity="0.7"/>
<path d="M56 166 q10 -2 20 0 M124 168 q10 -2 18 0" stroke="#BFEFE6" stroke-width="1.5" fill="none" opacity="0.8"/>
<ellipse cx="124" cy="162" rx="16" ry="6.5" fill="#4E9E50"/>
<ellipse cx="124" cy="160.8" rx="13.5" ry="5.2" fill="#5FB261"/>
<path d="M114 160 L134 160" stroke="#3E8E41" stroke-width="1" opacity="0.7"/>
<path d="M96 162 C96 154 97 148 98 144" stroke="#4E9E50" stroke-width="3" fill="none" stroke-linecap="round"/>
<path d="M98 146 C94 140 94 134 98 129 C102 134 102 140 98 146 Z" fill="#5FB261"/>
<path d="M98 144 C96 140 96 136 98 133" stroke="#3E8E41" stroke-width="1" fill="none" opacity="0.7"/>
<circle cx="80" cy="150" r="1.5" fill="#BFFFF2" opacity="0.8"/>
</svg>
