<svg xmlns="http://www.w3.org/2000/svg" viewBox="0 0 200 200">
<defs>
<radialGradient id="v1g"><stop offset="0%" stop-color="#C77BFF" stop-opacity="0.32"/><stop offset="100%" stop-color="#A04BD8" stop-opacity="0"/></radialGradient>
<radialGradient id="v1o" cx="42%" cy="35%"><stop offset="0%" stop-color="#FFF3C4"/><stop offset="55%" stop-color="#FFC23F"/><stop offset="100%" stop-color="#D97B1E"/></radialGradient>
<radialGradient id="v1og"><stop offset="0%" stop-color="#FFD166" stop-opacity="0.45"/><stop offset="100%" stop-color="#FFD166" stop-opacity="0"/></radialGradient>
</defs>
<ellipse cx="100" cy="172" rx="52" ry="11" fill="#6E5E86" opacity="0.7"/>
<ellipse cx="100" cy="169" rx="48" ry="9" fill="#857399" opacity="0.7"/>
<circle cx="100" cy="146" r="26" fill="url(#v1g)"/>
<path d="M100 166 C100 162 100 158 100 154" stroke="#54215E" stroke-width="3" fill="none" stroke-linecap="round"/>
<circle cx="100" cy="144" r="14" fill="url(#v1og)"/>
<ellipse cx="100" cy="142" rx="8" ry="9" fill="url(#v1o)"/>
<path d="M96 137 C98 141 98 145 96 148 M100 135 C102 140 102 145 100 149 M104 137 C105 141 105 145 104 148" stroke="#A8531E" stroke-width="0.9" fill="none" opacity="0.75"/>
<path d="M96 134 C92 130 90 124 92 118 C96 122 98 128 98 133 Z" fill="#D9479E" opacity="0.85"/>
<path d="M104 134 C108 130 110 124 108 118 C104 122 102 128 102 133 Z" fill="#B83A8A" opacity="0.85"/>
<circle cx="84" cy="128" r="1.3" fill="#F2C9FF" opacity="0.85"/>
<circle cx="118" cy="132" r="1.2" fill="#FFD3EC" opacity="0.8"/>
<path d="M114 114 l1.2 2.8 2.8 1.2 -2.8 1.2 -1.2 2.8 -1.2 -2.8 -2.8 -1.2 2.8 -1.2 Z" fill="#F2C9FF" opacity="0.9"/>
</svg>
