<svg xmlns="http://www.w3.org/2000/svg" viewBox="0 0 200 200">
<ellipse cx="100" cy="172" rx="52" ry="11" fill="#6E6A72" opacity="0.8"/>
<ellipse cx="100" cy="169" rx="48" ry="9" fill="#807C84" opacity="0.8"/>
<path d="M95 166 C94 158 95 152 97 148 L104 148 C106 153 107 160 106 166 Z" fill="#564A5A"/>
<!-- quả cầu xỉn nứt -->
<ellipse cx="100" cy="132" rx="11" ry="12" fill="#B0A488"/>
<path d="M95 124 C98 129 97 134 94 138 M101 122 C104 128 104 135 101 141" stroke="#8A7E64" stroke-width="1.1" fill="none" opacity="0.8"/>
<path d="M96 126 L102 132 L98 138" stroke="#6E6450" stroke-width="1.1" fill="none"/>
<ellipse cx="100" cy="148" rx="8" ry="8.5" fill="#A89C80"/>
<path d="M96 143 C98 147 98 151 96 154" stroke="#8A7E64" stroke-width="1" fill="none" opacity="0.8"/>
<!-- dải lụa rũ xuống đất -->
<path d="M96 122 C84 122 72 128 66 140 C76 132 88 128 98 126 Z" fill="#8E6E96" opacity="0.8"/>
<path d="M104 122 C116 122 128 128 134 140 C124 132 112 128 102 126 Z" fill="#86668E" opacity="0.8"/>
<path d="M95 124 C86 130 80 140 80 152 C84 142 90 134 98 128 Z" fill="#96769E" opacity="0.75"/>
<path d="M105 124 C114 130 120 140 120 152 C116 142 110 134 102 128 Z" fill="#8E6E96" opacity="0.75"/>
<path d="M98 122 C95 132 94 144 96 156 C97 144 98 134 100 126 Z" fill="#9E7EA6" opacity="0.7"/>
<!-- viền nhăn -->
<path d="M68 138 C76 132 86 128 96 126" stroke="#B8A2BE" stroke-width="0.8" fill="none" opacity="0.6"/>
<path d="M132 138 C124 132 114 128 104 126" stroke="#B8A2BE" stroke-width="0.8" fill="none" opacity="0.6"/>
<circle cx="86" cy="116" r="1.1" fill="#C9BCC4" opacity="0.5"/>
<ellipse cx="78" cy="160" rx="3.5" ry="1.6" fill="#8E6E96" opacity="0.7"/>
<ellipse cx="122" cy="162" rx="3" ry="1.5" fill="#86668E" opacity="0.7"/>
</svg>
