<svg xmlns="http://www.w3.org/2000/svg" viewBox="0 0 200 200">
<defs>
<radialGradient id="t3g"><stop offset="0%" stop-color="#7FB8FF" stop-opacity="0.4"/><stop offset="60%" stop-color="#5C8FE8" stop-opacity="0.16"/><stop offset="100%" stop-color="#5C8FE8" stop-opacity="0"/></radialGradient>
<radialGradient id="t3c"><stop offset="0%" stop-color="#FFFFFF"/><stop offset="100%" stop-color="#BFDCFF"/></radialGradient>
<linearGradient id="t3p" x1="0" y1="1" x2="0" y2="0"><stop offset="0%" stop-color="#9CC4F2" stop-opacity="0.85"/><stop offset="100%" stop-color="#FFFFFF" stop-opacity="0.95"/></linearGradient>
<linearGradient id="t3s" x1="0" y1="0" x2="1" y2="0"><stop offset="0%" stop-color="#A8CCEE"/><stop offset="50%" stop-color="#E8F4FF"/><stop offset="100%" stop-color="#8FB8E2"/></linearGradient>
</defs>
<ellipse cx="100" cy="172" rx="54" ry="11" fill="#5E7A99" opacity="0.6"/>
<ellipse cx="100" cy="169" rx="50" ry="9" fill="#7A98B8" opacity="0.6"/>
<ellipse cx="100" cy="104" rx="50" ry="46" fill="url(#t3g)"/>
<path d="M100 166 C99 146 97 126 98 102" stroke="#5C8FE8" stroke-width="5.5" fill="none" stroke-linecap="round" opacity="0.45"/>
<path d="M100 166 C99 146 97 126 98 102" stroke="url(#t3s)" stroke-width="2.8" fill="none" stroke-linecap="round"/>
<g transform="translate(98 80)">
<g fill="url(#t3p)">
<path d="M0 -7 C2.6 -14 2.2 -24 0 -32 C-2.2 -24 -2.6 -14 0 -7 Z"/>
<path transform="rotate(60)" d="M0 -7 C2.6 -14 2.2 -24 0 -32 C-2.2 -24 -2.6 -14 0 -7 Z"/>
<path transform="rotate(120)" d="M0 -7 C2.6 -14 2.2 -24 0 -32 C-2.2 -24 -2.6 -14 0 -7 Z"/>
<path transform="rotate(180)" d="M0 -7 C2.6 -14 2.2 -24 0 -32 C-2.2 -24 -2.6 -14 0 -7 Z"/>
<path transform="rotate(240)" d="M0 -7 C2.6 -14 2.2 -24 0 -32 C-2.2 -24 -2.6 -14 0 -7 Z"/>
<path transform="rotate(300)" d="M0 -7 C2.6 -14 2.2 -24 0 -32 C-2.2 -24 -2.6 -14 0 -7 Z"/>
</g>
<g fill="#DCEBFF" opacity="0.9">
<path transform="rotate(30)" d="M0 -6 C1.8 -11 1.6 -18 0 -23 C-1.6 -18 -1.8 -11 0 -6 Z"/>
<path transform="rotate(90)" d="M0 -6 C1.8 -11 1.6 -18 0 -23 C-1.6 -18 -1.8 -11 0 -6 Z"/>
<path transform="rotate(150)" d="M0 -6 C1.8 -11 1.6 -18 0 -23 C-1.6 -18 -1.8 -11 0 -6 Z"/>
<path transform="rotate(210)" d="M0 -6 C1.8 -11 1.6 -18 0 -23 C-1.6 -18 -1.8 -11 0 -6 Z"/>
<path transform="rotate(270)" d="M0 -6 C1.8 -11 1.6 -18 0 -23 C-1.6 -18 -1.8 -11 0 -6 Z"/>
<path transform="rotate(330)" d="M0 -6 C1.8 -11 1.6 -18 0 -23 C-1.6 -18 -1.8 -11 0 -6 Z"/>
</g>
<g stroke="#FFFFFF" stroke-width="1" opacity="0.95">
<path d="M0 -32 L0 -28 M-2.4 -30.5 L2.4 -30.5"/>
<path transform="rotate(180)" d="M0 -32 L0 -28 M-2.4 -30.5 L2.4 -30.5"/>
</g>
<circle r="6" fill="url(#t3c)"/>
<circle r="2.6" fill="#FFFFFF"/>
</g>
<path d="M86 130 C84 123 86 117 90 114 C92 119 91 125 89 130 Z" fill="#BFDCFF" opacity="0.9"/>
<path d="M74 166 C69 158 69 150 74 143 C77 151 77 159 75 166 Z" fill="#DCEBFF" opacity="0.85"/>
<path d="M126 166 C131 158 131 151 127 144 C124 152 124 159 125 166 Z" fill="#BFD8F2" opacity="0.8"/>
<circle cx="68" cy="86" r="1.6" fill="#FFFFFF" opacity="0.85"/>
<circle cx="132" cy="80" r="1.4" fill="#DCEBFF" opacity="0.8"/>
<circle cx="142" cy="120" r="1.4" fill="#DCEBFF" opacity="0.75"/>
<path d="M64 110 l1.5 3.4 3.4 1.5 -3.4 1.5 -1.5 3.4 -1.5 -3.4 -3.4 -1.5 3.4 -1.5 Z" fill="#FFFFFF" opacity="0.9"/>
<path d="M134 98 l1.3 3 3 1.3 -3 1.3 -1.3 3 -1.3 -3 -3 -1.3 3 -1.3 Z" fill="#DCEBFF" opacity="0.85"/>
</svg>
