<svg xmlns="http://www.w3.org/2000/svg" viewBox="0 0 200 200">
<defs>
<radialGradient id="t1g"><stop offset="0%" stop-color="#7FB8FF" stop-opacity="0.35"/><stop offset="100%" stop-color="#5C8FE8" stop-opacity="0"/></radialGradient>
<linearGradient id="t1s" x1="0" y1="0" x2="1" y2="0"><stop offset="0%" stop-color="#A8CCEE"/><stop offset="50%" stop-color="#E8F4FF"/><stop offset="100%" stop-color="#8FB8E2"/></linearGradient>
</defs>
<ellipse cx="100" cy="172" rx="54" ry="11" fill="#5E7A99" opacity="0.6"/>
<ellipse cx="100" cy="169" rx="50" ry="9" fill="#7A98B8" opacity="0.6"/>
<circle cx="100" cy="148" r="24" fill="url(#t1g)"/>
<path d="M100 166 C100 158 100 152 100 146" stroke="#5C8FE8" stroke-width="4" fill="none" stroke-linecap="round" opacity="0.45"/>
<path d="M100 166 C100 158 100 152 100 146" stroke="url(#t1s)" stroke-width="2" fill="none" stroke-linecap="round"/>
<path d="M100 150 C93 148 88 142 87 135 C95 137 99 143 100 150 Z" fill="#BFDCFF" opacity="0.9"/>
<path d="M100 150 C107 148 112 142 113 135 C105 137 101 143 100 150 Z" fill="#9CC4F2" opacity="0.9"/>
<circle cx="100" cy="144" r="3" fill="#FFFFFF"/>
<path d="M76 160 C73 155 73 150 76 146 C78 150 79 155 78 159 Z" fill="#DCEBFF" opacity="0.8"/>
<path d="M124 162 C127 157 127 152 124 148 C122 152 121 157 122 161 Z" fill="#BFD8F2" opacity="0.75"/>
<circle cx="86" cy="132" r="1.4" fill="#FFFFFF" opacity="0.85"/>
<circle cx="116" cy="136" r="1.2" fill="#DCEBFF" opacity="0.8"/>
</svg>
